<?xml version="1.0" encoding="utf-8"?>
<!-- Generator: Adobe Illustrator 22.0.1, SVG Export Plug-In . SVG Version: 6.00 Build 0)  -->
<svg version="1.1" id="Livello_1" xmlns="http://www.w3.org/2000/svg" xmlns:xlink="http://www.w3.org/1999/xlink" x="0px" y="0px"
	 viewBox="0 0 32.5 32.4" style="enable-background:new 0 0 32.5 32.4;" xml:space="preserve">
<style type="text/css">
	.st0{fill-rule:evenodd;clip-rule:evenodd;}
</style>
<path class="st0" d="M16.2,32.3c-8.8,0-16-7.2-16-16s7.2-16,16-16c8.8,0,16,7.2,16,16S25.1,32.3,16.2,32.3z M16.2,3.3
	c-7.2,0-13,5.8-13,13s5.8,13,13,13s13-5.8,13-13S23.4,3.3,16.2,3.3z M21.2,18.3h-3v3c0,1.1-0.9,2-2,2c-1.1,0-2-0.9-2-2v-3h-3
	c-1.1,0-2-0.9-2-2s0.9-2,2-2h3v-3c0-1.1,0.9-2,2-2c1.1,0,2,0.9,2,2v3h3c1.1,0,2,0.9,2,2S22.3,18.3,21.2,18.3z"/>
</svg>
