<?xml version="1.0" encoding="utf-8"?>
<!-- Generator: Adobe Illustrator 22.0.1, SVG Export Plug-In . SVG Version: 6.00 Build 0)  -->
<svg version="1.1" id="Livello_1" xmlns="http://www.w3.org/2000/svg" xmlns:xlink="http://www.w3.org/1999/xlink" x="0px" y="0px"
	 viewBox="0 0 38 36" style="enable-background:new 0 0 38 36;" xml:space="preserve">
<style type="text/css">
	.st0{fill:#010201;}
</style>
<path class="st0" d="M34,11h-5.1c0-0.1-0.1-0.2-0.1-0.3l-5-8C23.5,2.3,23,2,22.5,2C21.7,2,21,2.7,21,3.5c0,0.3,0.1,0.6,0.2,0.8
	l4.2,6.7H12.6l4.2-6.7C16.9,4.1,17,3.8,17,3.5C17,2.7,16.3,2,15.5,2c-0.5,0-1,0.3-1.3,0.7l-5,8c-0.1,0.1-0.1,0.2-0.1,0.3H4
	c-1.7,0-3,1.3-3,3v2c0,1.4,1,2.6,2.3,2.9l3.8,12.9C7.5,33.1,8.6,34,10,34h18c1.4,0,2.5-0.9,2.9-2.2l3.8-12.9C36,18.6,37,17.4,37,16
	v-2C37,12.3,35.7,11,34,11z M4,14h30v2H4V14z M28,31l-18,0L6.5,19h25.1L28,31z"/>
</svg>
