<?xml version="1.0" encoding="utf-8"?>
<!-- Generator: Adobe Illustrator 22.0.1, SVG Export Plug-In . SVG Version: 6.00 Build 0)  -->
<svg version="1.1" id="Layer_1" xmlns="http://www.w3.org/2000/svg" xmlns:xlink="http://www.w3.org/1999/xlink" x="0px" y="0px"
	 viewBox="0 0 67 49.5" style="enable-background:new 0 0 67 49.5;" xml:space="preserve">
<g>
	<g>
		<path d="M60.6,40.9H6.8c-2.2,0-4-1.8-4-4V0.4h4v36.5h53.7V0.4h4v36.5C64.6,39.1,62.8,40.9,60.6,40.9z"/>
	</g>
	<g>
		<path d="M63.1,49.4h-3v-4c0-0.3-0.2-0.5-0.5-0.5H6.8c-0.3,0-0.5,0.2-0.5,0.5v4h-3v-4c0-1.9,1.6-3.5,3.5-3.5h52.8
			c1.9,0,3.5,1.6,3.5,3.5V49.4z"/>
	</g>
	<g>
		<rect x="4.4" y="5.9" width="58.9" height="2"/>
	</g>
	<g>
		<rect x="4.4" y="28.9" width="58.9" height="2"/>
	</g>
	<g>
		<rect x="4.9" y="32.4" width="57.9" height="1"/>
	</g>
	<g>
		<rect x="12.4" y="6.9" width="2" height="22.6"/>
	</g>
	<g>
		<rect x="20.4" y="6.9" width="2" height="22.6"/>
	</g>
	<g>
		<rect x="28.4" y="6.9" width="2" height="22.6"/>
	</g>
	<g>
		<rect x="36.4" y="6.9" width="2" height="22.6"/>
	</g>
	<g>
		<rect x="44.4" y="6.9" width="2" height="22.6"/>
	</g>
	<g>
		<rect x="52.4" y="6.9" width="2" height="22.6"/>
	</g>
</g>
</svg>
