<?xml version="1.0" encoding="utf-8"?>
<!-- Generator: Adobe Illustrator 22.0.1, SVG Export Plug-In . SVG Version: 6.00 Build 0)  -->
<svg version="1.1" id="Livello_1" xmlns="http://www.w3.org/2000/svg" xmlns:xlink="http://www.w3.org/1999/xlink" x="0px" y="0px"
	 viewBox="0 0 31.8 29.9" style="enable-background:new 0 0 31.8 29.9;" xml:space="preserve">
<path d="M22.8,2.8c3.3,0,6,2.7,6,6c0,8.8-9.4,15.4-13,17.5c-3.6-2.2-13-8.7-13-17.5c0-3.3,2.7-6,6-6c1.8,0,3.5,0.8,4.7,2.2
	c0.6,0.7,1.4,1.1,2.3,1.1l0,0c0.9,0,1.8-0.4,2.3-1.1C19.3,3.6,21,2.8,22.8,2.8 M22.8-0.2c-2.8,0-5.4,1.3-7,3.3c-1.7-2-4.2-3.3-7-3.3
	c-5,0-9,4-9,9c0,12,14,20,16,21c2-1,16-9,16-21C31.8,3.8,27.8-0.2,22.8-0.2L22.8-0.2z"/>
</svg>
