<?xml version="1.0" encoding="utf-8"?>
<!-- Generator: Adobe Illustrator 22.0.1, SVG Export Plug-In . SVG Version: 6.00 Build 0)  -->
<svg version="1.1" id="Livello_1" xmlns="http://www.w3.org/2000/svg" xmlns:xlink="http://www.w3.org/1999/xlink" x="0px" y="0px"
	 viewBox="0 0 25.7 32.1" style="enable-background:new 0 0 25.7 32.1;" xml:space="preserve">
<path d="M12.8,3.8l10,10v15.3h-5v-7c0-1.1-0.9-2-2-2h-6c-1.1,0-2,0.9-2,2v7h-5V13.8L12.8,3.8 M13.7,0.4c-0.5-0.5-1.3-0.5-1.8,0
	L0.4,12c-0.4,0.4-0.6,0.9-0.6,1.4v16.7c0,1.1,0.9,2,2,2h7c1.1,0,2-0.9,2-2v-7h4v7c0,1.1,0.9,2,2,2h7c1.1,0,2-0.9,2-2V13.4
	c0-0.5-0.2-1-0.6-1.4L13.7,0.4z"/>
</svg>
