<?xml version="1.0" encoding="utf-8"?>
<!-- Generator: Adobe Illustrator 22.0.1, SVG Export Plug-In . SVG Version: 6.00 Build 0)  -->
<svg version="1.1" id="Layer_1" xmlns="http://www.w3.org/2000/svg" xmlns:xlink="http://www.w3.org/1999/xlink" x="0px" y="0px"
	 viewBox="0 0 72.6 59" style="enable-background:new 0 0 72.6 59;" xml:space="preserve">
<style type="text/css">
	.st0{fill:#FFFFFF;}
</style>
<g>
	<g>
		<rect x="41.9" y="17.1" width="2" height="35.6"/>
	</g>
	<g>
		<rect x="4.4" y="16.9" width="65" height="2"/>
	</g>
	<g>
		<rect x="8" y="3.6" width="14.9" height="2"/>
	</g>
	<g>
		<rect x="29" y="3.6" width="14.9" height="2"/>
	</g>
	<g>
		<rect x="50" y="3.6" width="14.9" height="2"/>
	</g>
	<g>
		<rect x="5.5" y="54.1" width="9.2" height="3"/>
	</g>
	<g>
		<rect x="58.5" y="54.1" width="9.2" height="3"/>
	</g>
	<g>
		<path d="M66.9,54.6h-61c-2.2,0-4-1.8-4-4v-41c0-2.2,1.8-4,4-4h61c2.2,0,4,1.8,4,4v41C70.9,52.8,69.1,54.6,66.9,54.6z M5.9,9.6v41
			h61v-41H5.9z"/>
	</g>
	<g>
		<path d="M33.9,43.1h-19c-1.7,0-3-1.3-3-3V28.1c0-1.7,1.3-3,3-3h19c1.7,0,3,1.3,3,3v11.9C36.9,41.7,35.6,43.1,33.9,43.1z
			 M14.9,27.1c-0.6,0-1,0.4-1,1v11.9c0,0.6,0.4,1,1,1h19c0.6,0,1-0.4,1-1V28.1c0-0.6-0.4-1-1-1H14.9z"/>
	</g>
	<g>
		<rect x="16.4" y="33.6" transform="matrix(0.7071 -0.7071 0.7071 0.7071 -17.8174 26.1881)" width="12.7" height="2"/>
	</g>
	<g>
		<rect x="21.8" y="33.6" transform="matrix(0.7071 -0.7071 0.7071 0.7071 -16.2248 30.033)" width="12.7" height="2"/>
	</g>
	<g>
		<path class="st0" d="M17.9,13.2c0,0.9-0.7,1.6-1.6,1.6c-0.9,0-1.6-0.7-1.6-1.6c0-0.9,0.7-1.6,1.6-1.6
			C17.2,11.6,17.9,12.3,17.9,13.2z"/>
		<path d="M16.3,15.2c-1.1,0-2.1-0.9-2.1-2.1s0.9-2.1,2.1-2.1s2.1,0.9,2.1,2.1S17.5,15.2,16.3,15.2z M16.3,12.1
			c-0.6,0-1.1,0.5-1.1,1.1s0.5,1.1,1.1,1.1s1.1-0.5,1.1-1.1S16.9,12.1,16.3,12.1z"/>
	</g>
	<g>
		<path class="st0" d="M27.9,13.2c0,0.9-0.7,1.6-1.6,1.6s-1.6-0.7-1.6-1.6c0-0.9,0.7-1.6,1.6-1.6S27.9,12.3,27.9,13.2z"/>
		<path d="M26.3,15.2c-1.1,0-2.1-0.9-2.1-2.1s0.9-2.1,2.1-2.1s2.1,0.9,2.1,2.1S27.5,15.2,26.3,15.2z M26.3,12.1
			c-0.6,0-1.1,0.5-1.1,1.1s0.5,1.1,1.1,1.1s1.1-0.5,1.1-1.1S26.9,12.1,26.3,12.1z"/>
	</g>
	<g>
		<path class="st0" d="M37.9,13.2c0,0.9-0.7,1.6-1.6,1.6c-0.9,0-1.6-0.7-1.6-1.6c0-0.9,0.7-1.6,1.6-1.6
			C37.2,11.6,37.9,12.3,37.9,13.2z"/>
		<path d="M36.3,15.2c-1.1,0-2.1-0.9-2.1-2.1s0.9-2.1,2.1-2.1s2.1,0.9,2.1,2.1S37.5,15.2,36.3,15.2z M36.3,12.1
			c-0.6,0-1.1,0.5-1.1,1.1s0.5,1.1,1.1,1.1s1.1-0.5,1.1-1.1S36.9,12.1,36.3,12.1z"/>
	</g>
	<g>
		<path class="st0" d="M47.9,13.2c0,0.9-0.7,1.6-1.6,1.6c-0.9,0-1.6-0.7-1.6-1.6c0-0.9,0.7-1.6,1.6-1.6
			C47.2,11.6,47.9,12.3,47.9,13.2z"/>
		<path d="M46.3,15.2c-1.1,0-2.1-0.9-2.1-2.1s0.9-2.1,2.1-2.1s2.1,0.9,2.1,2.1S47.5,15.2,46.3,15.2z M46.3,12.1
			c-0.6,0-1.1,0.5-1.1,1.1s0.5,1.1,1.1,1.1s1.1-0.5,1.1-1.1S46.9,12.1,46.3,12.1z"/>
	</g>
	<g>
		<path class="st0" d="M57.9,13.2c0,0.9-0.7,1.6-1.6,1.6s-1.6-0.7-1.6-1.6c0-0.9,0.7-1.6,1.6-1.6S57.9,12.3,57.9,13.2z"/>
		<path d="M56.3,15.2c-1.1,0-2.1-0.9-2.1-2.1s0.9-2.1,2.1-2.1s2.1,0.9,2.1,2.1S57.5,15.2,56.3,15.2z M56.3,12.1
			c-0.6,0-1.1,0.5-1.1,1.1s0.5,1.1,1.1,1.1s1.1-0.5,1.1-1.1S56.9,12.1,56.3,12.1z"/>
	</g>
</g>
</svg>
