<?xml version="1.0" encoding="utf-8"?>
<!-- Generator: Adobe Illustrator 22.0.1, SVG Export Plug-In . SVG Version: 6.00 Build 0)  -->
<svg version="1.1" id="Layer_1" xmlns="http://www.w3.org/2000/svg" xmlns:xlink="http://www.w3.org/1999/xlink" x="0px" y="0px"
	 viewBox="0 0 63.3 68" style="enable-background:new 0 0 63.3 68;" xml:space="preserve">
<style type="text/css">
	.st0{fill:#FFFFFF;}
</style>
<g>
	<g>
		<path class="st0" d="M19.5,22.1c0,0.8-0.6,1.4-1.4,1.4c-0.8,0-1.4-0.6-1.4-1.4c0-0.8,0.6-1.4,1.4-1.4
			C18.9,20.6,19.5,21.3,19.5,22.1z"/>
		<path d="M18.1,24c-1.1,0-1.9-0.9-1.9-1.9c0-1.1,0.9-1.9,1.9-1.9S20,21,20,22.1C20,23.1,19.1,24,18.1,24z M18.1,21.1
			c-0.5,0-0.9,0.4-0.9,0.9c0,0.5,0.4,0.9,0.9,0.9s0.9-0.4,0.9-0.9C19,21.5,18.6,21.1,18.1,21.1z"/>
	</g>
	<g>
		<circle class="st0" cx="14.1" cy="44.1" r="1.4"/>
		<path d="M14.1,46c-1.1,0-1.9-0.9-1.9-1.9s0.9-1.9,1.9-1.9S16,43,16,44.1S15.1,46,14.1,46z M14.1,43.1c-0.5,0-0.9,0.4-0.9,0.9
			s0.4,0.9,0.9,0.9s0.9-0.4,0.9-0.9S14.6,43.1,14.1,43.1z"/>
	</g>
	<g>
		<circle class="st0" cx="14.1" cy="54.1" r="1.4"/>
		<path d="M14.1,56c-1.1,0-1.9-0.9-1.9-1.9s0.9-1.9,1.9-1.9S16,53,16,54.1S15.1,56,14.1,56z M14.1,53.1c-0.5,0-0.9,0.4-0.9,0.9
			s0.4,0.9,0.9,0.9s0.9-0.4,0.9-0.9S14.6,53.1,14.1,53.1z"/>
	</g>
	<g>
		<rect x="23" y="3.2" width="3" height="63.1"/>
	</g>
	<g>
		<rect x="24" y="38.2" width="37" height="3"/>
	</g>
	<g>
		<rect x="2" y="38.2" width="23" height="3"/>
	</g>
	<g>
		<rect x="2" y="48.2" width="23" height="3"/>
	</g>
	<g>
		<rect x="25" y="14.2" width="35" height="1"/>
	</g>
	<g>
		<rect x="2" y="58.2" width="23" height="3"/>
	</g>
	<g>
		<path d="M62,66.8h-4V5.3H5v61.5H1V5.3c0-2.2,1.8-4,4-4h53c2.2,0,4,1.8,4,4V66.8z"/>
	</g>
</g>
</svg>
