<?xml version="1.0" encoding="utf-8"?>
<!-- Generator: Adobe Illustrator 22.0.1, SVG Export Plug-In . SVG Version: 6.00 Build 0)  -->
<svg version="1.1" id="Layer_1" xmlns="http://www.w3.org/2000/svg" xmlns:xlink="http://www.w3.org/1999/xlink" x="0px" y="0px"
	 viewBox="0 0 76 67" style="enable-background:new 0 0 76 67;" xml:space="preserve">
<style type="text/css">
	.st0{fill:#FFFFFF;}
</style>
<g>
	<g>
		<path d="M72.5,63.5h-4V37h-61v26.5h-4V37c0-2.2,1.8-4,4-4h61c2.2,0,4,1.8,4,4V63.5z"/>
	</g>
	<g>
		<path class="st0" d="M18,21.8c0,0.8-0.6,1.4-1.4,1.4c-0.8,0-1.4-0.6-1.4-1.4c0-0.8,0.6-1.4,1.4-1.4C17.4,20.4,18,21,18,21.8z"/>
		<path d="M16.6,23.8c-1.1,0-1.9-0.9-1.9-1.9c0-1.1,0.9-1.9,1.9-1.9s1.9,0.9,1.9,1.9C18.5,22.9,17.6,23.8,16.6,23.8z M16.6,20.9
			c-0.5,0-0.9,0.4-0.9,0.9c0,0.5,0.4,0.9,0.9,0.9s0.9-0.4,0.9-0.9C17.5,21.3,17.1,20.9,16.6,20.9z"/>
	</g>
	<g>
		<rect x="5.5" y="44" width="65.1" height="3"/>
	</g>
	<g>
		<rect x="38.6" y="29" width="20.9" height="3"/>
	</g>
	<g>
		<rect x="12.1" y="10" width="8.7" height="1"/>
	</g>
	<g>
		<path d="M69,28.5H28v-24h41V28.5z M31,25.5h35v-18H31V25.5z"/>
	</g>
	<g>
		<path d="M25,32.5H8v-28h17V32.5z M11,29.5h11v-22H11V29.5z"/>
	</g>
</g>
</svg>
