<?xml version="1.0" encoding="utf-8"?>
<!-- Generator: Adobe Illustrator 22.0.1, SVG Export Plug-In . SVG Version: 6.00 Build 0)  -->
<svg version="1.1" id="Livello_1" xmlns="http://www.w3.org/2000/svg" xmlns:xlink="http://www.w3.org/1999/xlink" x="0px" y="0px"
	 viewBox="0 0 24.1 31.9" style="enable-background:new 0 0 24.1 31.9;" xml:space="preserve">
<style type="text/css">
	.st0{fill-rule:evenodd;clip-rule:evenodd;}
</style>
<path class="st0" d="M22,18.4l-8,12.3c-0.4,0.7-1.2,1.1-2.1,1.1c-0.9,0-1.7-0.5-2.1-1.1l-8-12.3c-1.2-1.9-1.9-4.1-1.9-6.5
	c0-6.6,5.4-12,12-12c6.6,0,12,5.4,12,12C23.9,14.3,23.2,16.6,22,18.4z M11.9,2.9c-5,0-9,4-9,9c0,1.7,0.5,3.4,1.4,4.9l7.6,11.7
	l7.6-11.7c0.9-1.5,1.4-3.1,1.4-4.9C20.9,7,16.8,2.9,11.9,2.9z M11.9,16.9c-2.8,0-5-2.2-5-5s2.2-5,5-5s5,2.2,5,5S14.6,16.9,11.9,16.9
	z M11.9,9.9c-1.1,0-2,0.9-2,2c0,1.1,0.9,2,2,2c1.1,0,2-0.9,2-2C13.9,10.8,13,9.9,11.9,9.9z"/>
</svg>
