<?xml version="1.0" encoding="utf-8"?>
<!-- Generator: Adobe Illustrator 22.0.1, SVG Export Plug-In . SVG Version: 6.00 Build 0)  -->
<svg version="1.1" id="Livello_1" xmlns="http://www.w3.org/2000/svg" xmlns:xlink="http://www.w3.org/1999/xlink" x="0px" y="0px"
	 viewBox="0 0 32.2 32.2" style="enable-background:new 0 0 32.2 32.2;" xml:space="preserve">
<style type="text/css">
	.st0{fill-rule:evenodd;clip-rule:evenodd;}
</style>
<path class="st0" d="M16,32.2c-8.8,0-16-7.2-16-16s7.2-16,16-16c8.8,0,16,7.2,16,16S24.8,32.2,16,32.2z M16,3.2C8.8,3.2,3,9,3,16.2
	s5.8,13,13,13c7.2,0,13-5.8,13-13S23.1,3.2,16,3.2z M21,18.2H11c-1.1,0-2-0.9-2-2s0.9-2,2-2h10c1.1,0,2,0.9,2,2S22.1,18.2,21,18.2z"
	/>
</svg>
