<?xml version="1.0" encoding="utf-8"?>
<!-- Generator: Adobe Illustrator 22.0.1, SVG Export Plug-In . SVG Version: 6.00 Build 0)  -->
<svg version="1.1" id="Livello_1" xmlns="http://www.w3.org/2000/svg" xmlns:xlink="http://www.w3.org/1999/xlink" x="0px" y="0px"
	 viewBox="0 0 32 32.1" style="enable-background:new 0 0 32 32.1;" xml:space="preserve">
<style type="text/css">
	.st0{fill:#000101;}
</style>
<path class="st0" d="M20,0C13.4,0,8,5.4,8,12c0,2.8,0.9,5.3,2.5,7.3L0.5,29.4C0.2,29.7,0,30.1,0,30.5c0,0.4,0.1,0.8,0.4,1.1
	C0.8,31.9,1.2,32,1.5,32s0.8-0.1,1.1-0.4l10.1-10.1c2,1.6,4.6,2.5,7.3,2.5c6.6,0,12-5.4,12-12C32,5.4,26.7,0,20,0z M20,21
	c-5,0-9-4-9-9c0-5,4-9,9-9c5,0,9,4,9,9C29,17,25,21,20,21z"/>
</svg>
