<?xml version="1.0" encoding="utf-8"?>
<!-- Generator: Adobe Illustrator 22.0.1, SVG Export Plug-In . SVG Version: 6.00 Build 0)  -->
<svg version="1.1" id="Layer_1" xmlns="http://www.w3.org/2000/svg" xmlns:xlink="http://www.w3.org/1999/xlink" x="0px" y="0px"
	 viewBox="0 0 54.6 34.5" style="enable-background:new 0 0 54.6 34.5;" xml:space="preserve">
<style type="text/css">
	.st0{fill:none;stroke:#000000;stroke-width:4;stroke-linecap:square;stroke-miterlimit:10;}
	.st1{fill:none;stroke:#000000;stroke-width:2;stroke-linecap:square;stroke-miterlimit:10;}
</style>
<g>
	<g>
		<path class="st0" d="M2.2,2.1v28.3c0,1.1,0.9,2,2,2h46.2c1.1,0,2-0.9,2-2V2.1"/>
	</g>
	<g>
		<path class="st1" d="M45.6,5.7l-1.8,1.8c-0.8,0.8-2.1,0.8-2.8,0l-2.3-2.3c-0.8-0.8-2.1-0.8-2.8,0l-2.3,2.3c-0.8,0.8-2.1,0.8-2.8,0
			l-2.3-2.3c-0.8-0.8-2.1-0.8-2.8,0l-2.3,2.3c-0.8,0.8-2.1,0.8-2.8,0l-2.3-2.3c-0.8-0.8-2.1-0.8-2.8,0l-2.3,2.3
			c-0.8,0.8-2.1,0.8-2.8,0L8,5.4"/>
	</g>
	<g>
		<path class="st1" d="M24.6,22c2.7,0,5.2-1.2,6.9-3.1c-1.7-1.9-4.2-3.1-6.9-3.1c-2.7,0-5.2,1.2-6.9,3.1C19.4,20.8,21.9,22,24.6,22z
			"/>
		<polygon class="st1" points="35.4,22.9 31.4,18.9 35.4,15 		"/>
	</g>
</g>
</svg>
