<?xml version="1.0" encoding="utf-8"?>
<!-- Generator: Adobe Illustrator 22.0.1, SVG Export Plug-In . SVG Version: 6.00 Build 0)  -->
<svg version="1.1" id="Livello_1" xmlns="http://www.w3.org/2000/svg" xmlns:xlink="http://www.w3.org/1999/xlink" x="0px" y="0px"
	 viewBox="0 0 54.6 34.5" style="enable-background:new 0 0 54.6 34.5;" xml:space="preserve">
<g>
	<path d="M50.4,34.4H4.2c-2.2,0-4-1.8-4-4V0.1h4v30.3h46.2V0.1h4v30.3C54.4,32.6,52.6,34.4,50.4,34.4z"/>
</g>
<g>
	<path d="M42.4,9.1C42.3,9.1,42.3,9.1,42.4,9.1c-0.9,0-1.6-0.4-2.1-0.9L38,5.9c-0.2-0.2-0.5-0.3-0.8-0.3c-0.1,0-0.4,0-0.6,0.3
		l-2.3,2.3c-0.6,0.6-1.4,0.9-2.2,0.9c-0.8,0-1.5-0.4-2-0.9l-2.3-2.3c-0.2-0.2-0.5-0.3-0.8-0.3c-0.1,0-0.4,0-0.6,0.3l-2.3,2.3
		c-0.6,0.6-1.4,0.9-2.2,0.9c-0.8,0-1.5-0.4-2-0.9l-2.3-2.3c-0.2-0.2-0.5-0.3-0.8-0.3c-0.1,0-0.4,0-0.6,0.3l-2.3,2.3
		c-0.6,0.6-1.4,0.9-2.2,0.9c-0.8,0-1.5-0.3-2-0.9L6.6,5.5L7.9,4l3.2,2.9c0.2,0.2,0.4,0.3,0.6,0.3c0.3,0,0.6-0.1,0.8-0.3l2.3-2.3
		c0.5-0.5,1.2-0.9,2-0.9c0.8,0,1.6,0.3,2.2,0.9l2.3,2.3c0.2,0.3,0.5,0.3,0.6,0.3c0.3,0,0.6-0.1,0.8-0.3L25,4.5
		c0.5-0.5,1.2-0.9,2-0.9c0.8,0,1.6,0.3,2.2,0.9l2.3,2.3c0.2,0.3,0.5,0.3,0.6,0.3c0.3,0,0.6-0.1,0.8-0.3l2.3-2.3
		c0.5-0.5,1.2-0.9,2-0.9c0.8,0,1.7,0.3,2.2,0.9l2.3,2.3c0.2,0.3,0.5,0.3,0.6,0.3c0.3,0,0.6-0.1,0.8-0.3l2.5-2.5L47,5.7l-2.5,2.5
		C43.9,8.8,43.2,9.1,42.4,9.1z"/>
</g>
<g>
	<path d="M24.6,23c-2.9,0-5.7-1.3-7.6-3.4l-0.6-0.7l0.6-0.7c2-2.2,4.7-3.4,7.6-3.4c2.9,0,5.7,1.3,7.6,3.4l0.6,0.7l-0.6,0.7
		C30.3,21.7,27.5,23,24.6,23z M19.1,18.9c1.5,1.3,3.5,2.1,5.5,2.1c2,0,4-0.8,5.5-2.1c-1.5-1.3-3.5-2.1-5.5-2.1
		C22.6,16.8,20.6,17.6,19.1,18.9z"/>
</g>
<g>
	<path d="M36.4,25.3L30,18.9l6.4-6.3V25.3z M32.8,18.9l1.6,1.6v-3.1L32.8,18.9z"/>
</g>
</svg>
