<svg xmlns="http://www.w3.org/2000/svg" viewBox="0 0 67 49.5"><style type="text/css">  
	.st0{fill:none;stroke:#000000;stroke-width:4;stroke-linecap:square;stroke-miterlimit:10;}
	.st1{fill:none;stroke:#000000;stroke-width:3;stroke-linecap:square;stroke-miterlimit:10;}
	.st2{fill:none;stroke:#000000;stroke-width:2;stroke-linecap:square;stroke-miterlimit:10;}
	.st3{fill:none;stroke:#000000;stroke-linecap:square;stroke-miterlimit:10;}
</style><path class="st0" d="M4.8 2.4v34.5c0 1.1 0.9 2 2 2h53.7c1.1 0 2-0.9 2-2V2.4"/><path class="st1" d="M61.6 47.9v-2.5c0-1.1-0.9-2-2-2H6.8c-1.1 0-2 0.9-2 2v2.5"/><line class="st2" x1="62.3" y1="6.9" x2="5.4" y2="6.9"/><line class="st2" x1="62.3" y1="29.9" x2="5.4" y2="29.9"/><line class="st3" x1="62.3" y1="32.9" x2="5.4" y2="32.9"/><line class="st2" x1="13.4" y1="7.9" x2="13.4" y2="28.5"/><line class="st2" x1="21.4" y1="7.9" x2="21.4" y2="28.5"/><line class="st2" x1="29.4" y1="7.9" x2="29.4" y2="28.5"/><line class="st2" x1="37.4" y1="7.9" x2="37.4" y2="28.5"/><line class="st2" x1="45.4" y1="7.9" x2="45.4" y2="28.5"/><line class="st2" x1="53.4" y1="7.9" x2="53.4" y2="28.5"/></svg>