<svg id="Layer_1" data-name="Layer 1" xmlns="http://www.w3.org/2000/svg" viewBox="0 0 61.75 49"><defs><style>.cls-1,.cls-2,.cls-3,.cls-4{fill:none;stroke:#000;stroke-linecap:square;stroke-miterlimit:10;}.cls-1{stroke-width:4px;}.cls-2{stroke-width:3px;}.cls-3{stroke-width:2px;}</style></defs><title>for-kids</title><path class="cls-1" d="M243.48,407.8v34.5a2,2,0,0,0,2,2h53.75a2,2,0,0,0,2-2V407.8" transform="translate(-241.48 -405.8)"/><path class="cls-2" d="M300.23,453.3v-2.5a2,2,0,0,0-2-2H245.48a2,2,0,0,0-2,2v2.5" transform="translate(-241.48 -405.8)"/><line class="cls-3" x1="59.5" y1="6.5" x2="2.61" y2="6.5"/><line class="cls-3" x1="59.5" y1="29.5" x2="2.61" y2="29.5"/><line class="cls-4" x1="59.5" y1="32.5" x2="2.61" y2="32.5"/><line class="cls-3" x1="10.55" y1="7.5" x2="10.55" y2="28.05"/><line class="cls-3" x1="18.55" y1="7.5" x2="18.55" y2="28.05"/><line class="cls-3" x1="26.55" y1="7.5" x2="26.55" y2="28.05"/><line class="cls-3" x1="34.55" y1="7.5" x2="34.55" y2="28.05"/><line class="cls-3" x1="42.55" y1="7.5" x2="42.55" y2="28.05"/><line class="cls-3" x1="50.55" y1="7.5" x2="50.55" y2="28.05"/></svg>