<svg xmlns="http://www.w3.org/2000/svg" viewBox="0 0 72.6 59"><style type="text/css">  
	.st0{fill:none;stroke:#000000;stroke-width:2;stroke-linecap:square;stroke-miterlimit:10;}
	.st1{fill:none;stroke:#000000;stroke-width:3;stroke-linecap:square;stroke-miterlimit:10;}
	.st2{fill:none;stroke:#000000;stroke-width:4;stroke-linecap:square;stroke-miterlimit:10;}
	.st3{fill:#FFFFFF;stroke:#000000;stroke-miterlimit:10;}
</style><line class="st0" x1="42.9" y1="18.1" x2="42.9" y2="51.7"/><line class="st0" x1="5.4" y1="17.9" x2="68.4" y2="17.9"/><line class="st0" x1="21.9" y1="4.6" x2="9" y2="4.6"/><line class="st0" x1="42.9" y1="4.6" x2="30" y2="4.6"/><line class="st0" x1="63.9" y1="4.6" x2="51" y2="4.6"/><line class="st1" x1="13.3" y1="55.6" x2="7" y2="55.6"/><line class="st1" x1="66.3" y1="55.6" x2="60" y2="55.6"/><path class="st2" d="M68.9 50.6c0 1.1-0.9 2-2 2h-61c-1.1 0-2-0.9-2-2v-41c0-1.1 0.9-2 2-2h61c1.1 0 2 0.9 2 2V50.6z"/><path class="st0" d="M35.9 40.1c0 1.1-0.9 2-2 2h-19c-1.1 0-2-0.9-2-2V28.1c0-1.1 0.9-2 2-2h19c1.1 0 2 0.9 2 2V40.1z"/><line class="st0" x1="26.5" y1="30.8" x2="18.9" y2="38.4"/><line class="st0" x1="31.9" y1="30.8" x2="24.4" y2="38.4"/><path class="st3" d="M17.9 13.2c0 0.9-0.7 1.6-1.6 1.6 -0.9 0-1.6-0.7-1.6-1.6 0-0.9 0.7-1.6 1.6-1.6C17.2 11.6 17.9 12.3 17.9 13.2z"/><path class="st3" d="M27.9 13.2c0 0.9-0.7 1.6-1.6 1.6s-1.6-0.7-1.6-1.6c0-0.9 0.7-1.6 1.6-1.6S27.9 12.3 27.9 13.2z"/><path class="st3" d="M37.9 13.2c0 0.9-0.7 1.6-1.6 1.6 -0.9 0-1.6-0.7-1.6-1.6 0-0.9 0.7-1.6 1.6-1.6C37.2 11.6 37.9 12.3 37.9 13.2z"/><path class="st3" d="M47.9 13.2c0 0.9-0.7 1.6-1.6 1.6 -0.9 0-1.6-0.7-1.6-1.6 0-0.9 0.7-1.6 1.6-1.6C47.2 11.6 47.9 12.3 47.9 13.2z"/><path class="st3" d="M57.9 13.2c0 0.9-0.7 1.6-1.6 1.6s-1.6-0.7-1.6-1.6c0-0.9 0.7-1.6 1.6-1.6S57.9 12.3 57.9 13.2z"/></svg>