<svg id="Layer_1" xmlns="http://www.w3.org/2000/svg" viewBox="0 0 63.3 68"><style type="text/css">  
	.st0{fill:#FFFFFF;stroke:#000000;stroke-miterlimit:10;}
	.st1{fill:none;stroke:#000000;stroke-width:3;stroke-linecap:square;stroke-miterlimit:10;}
	.st2{fill:none;stroke:#000000;stroke-linecap:square;stroke-miterlimit:10;}
	.st3{fill:none;stroke:#000000;stroke-width:4;stroke-linecap:square;stroke-miterlimit:10;}
</style><path class="st0" d="M19.5 22.1c0 0.8-0.6 1.4-1.4 1.4 -0.8 0-1.4-0.6-1.4-1.4 0-0.8 0.6-1.4 1.4-1.4C18.9 20.6 19.5 21.3 19.5 22.1z"/><circle class="st0" cx="14.1" cy="44.1" r="1.4"/><circle class="st0" cx="14.1" cy="54.1" r="1.4"/><line class="st1" x1="24.5" y1="4.7" x2="24.5" y2="64.8"/><line class="st1" x1="25.5" y1="39.7" x2="59.5" y2="39.7"/><line class="st1" x1="3.5" y1="39.7" x2="23.5" y2="39.7"/><line class="st1" x1="3.5" y1="49.7" x2="23.5" y2="49.7"/><line class="st2" x1="25.5" y1="14.7" x2="59.5" y2="14.7"/><line class="st1" x1="3.5" y1="59.7" x2="23.5" y2="59.7"/><path class="st3" d="M60 64.8V5.3c0-1.1-0.9-2-2-2H5c-1.1 0-2 0.9-2 2v59.5"/></svg>