<?xml version="1.0" encoding="utf-8"?>
<!-- Generator: Adobe Illustrator 22.0.1, SVG Export Plug-In . SVG Version: 6.00 Build 0)  -->
<svg version="1.1" id="Layer_1" xmlns="http://www.w3.org/2000/svg" xmlns:xlink="http://www.w3.org/1999/xlink" x="0px" y="0px"
	 viewBox="0 0 76 67" style="enable-background:new 0 0 76 67;" xml:space="preserve">
<style type="text/css">
	.st0{fill:none;stroke:#000000;stroke-width:4;stroke-linecap:square;stroke-miterlimit:10;}
	.st1{fill:#FFFFFF;stroke:#000000;stroke-miterlimit:10;}
	.st2{fill:none;stroke:#000000;stroke-width:3;stroke-linecap:square;stroke-miterlimit:10;}
	.st3{fill:none;stroke:#000000;stroke-miterlimit:10;}
</style>
<g>
	<g>
		<path class="st0" d="M70.5,61.5V37c0-1.1-0.9-2-2-2h-61c-1.1,0-2,0.9-2,2v24.5"/>
	</g>
	<path class="st1" d="M18,21.8c0,0.8-0.6,1.4-1.4,1.4c-0.8,0-1.4-0.6-1.4-1.4c0-0.8,0.6-1.4,1.4-1.4C17.4,20.4,18,21,18,21.8z"/>
	<g>
		<line class="st2" x1="69.1" y1="45.5" x2="7" y2="45.5"/>
	</g>
	<g>
		<line class="st2" x1="58" y1="30.5" x2="40.1" y2="30.5"/>
	</g>
	<g>
		<line class="st3" x1="20.8" y1="10.5" x2="12.1" y2="10.5"/>
	</g>
	<rect x="29.5" y="6" class="st2" width="38" height="21"/>
	<rect x="9.5" y="6" class="st2" width="14" height="25"/>
</g>
</svg>
