<svg aria-hidden="true" style="position: absolute; width: 0; height: 0; overflow: hidden;" version="1.1" xmlns="http://www.w3.org/2000/svg" xmlns:xlink="http://www.w3.org/1999/xlink">
<defs>
<symbol id="icon-accessories" viewBox="0 0 51 32">
<title>accessories</title>
<path d="M46.748 31.907h-42.852c-2.041 0-3.71-1.67-3.71-3.71v-28.104h3.71v28.104h42.852v-28.104h3.71v28.104c0 2.041-1.67 3.71-3.71 3.71z"></path>
<path d="M39.328 8.441c-0.093 0-0.093 0 0 0-0.835 0-1.484-0.371-1.948-0.835l-2.133-2.133c-0.185-0.186-0.464-0.278-0.742-0.278-0.093 0-0.371 0-0.557 0.278l-2.133 2.133c-0.557 0.557-1.299 0.835-2.041 0.835s-1.391-0.371-1.855-0.835l-2.133-2.133c-0.186-0.186-0.464-0.278-0.742-0.278-0.093 0-0.371 0-0.557 0.278l-2.133 2.133c-0.557 0.557-1.299 0.835-2.041 0.835s-1.391-0.371-1.855-0.835l-2.133-2.133c-0.186-0.186-0.464-0.278-0.742-0.278-0.093 0-0.371 0-0.557 0.278l-2.133 2.133c-0.557 0.557-1.299 0.835-2.041 0.835s-1.391-0.278-1.855-0.835l-2.875-2.504 1.206-1.391 2.968 2.69c0.185 0.186 0.371 0.278 0.557 0.278 0.278 0 0.557-0.093 0.742-0.278l2.133-2.133c0.464-0.464 1.113-0.835 1.855-0.835s1.484 0.278 2.041 0.835l2.133 2.133c0.186 0.278 0.464 0.278 0.557 0.278 0.278 0 0.557-0.093 0.742-0.278l2.133-2.226c0.464-0.464 1.113-0.835 1.855-0.835s1.484 0.278 2.041 0.835l2.133 2.133c0.186 0.278 0.464 0.278 0.557 0.278 0.278 0 0.557-0.093 0.742-0.278l2.133-2.133c0.464-0.464 1.113-0.835 1.855-0.835s1.577 0.278 2.041 0.835l2.133 2.133c0.185 0.278 0.464 0.278 0.557 0.278 0.278 0 0.557-0.093 0.742-0.278l2.319-2.319 1.299 1.299-2.319 2.319c-0.557 0.557-1.206 0.835-1.948 0.835z"></path>
<path d="M22.817 21.333c-2.69 0-5.287-1.206-7.049-3.154l-0.557-0.649 0.557-0.649c1.855-2.041 4.359-3.154 7.049-3.154s5.287 1.206 7.049 3.154l0.557 0.649-0.557 0.649c-1.762 1.948-4.359 3.154-7.049 3.154zM17.716 17.53c1.391 1.206 3.246 1.948 5.101 1.948s3.71-0.742 5.101-1.948c-1.391-1.206-3.246-1.948-5.101-1.948s-3.71 0.742-5.101 1.948z"></path>
<path d="M33.762 23.467l-5.936-5.936 5.936-5.843v11.78zM30.423 17.53l1.484 1.484v-2.875l-1.484 1.391z"></path>
</symbol>
<symbol id="icon-for-kids" viewBox="0 0 43 32">
<title>for-kids</title>
<path d="M39.176 26.44h-34.78c-1.422 0-2.586-1.164-2.586-2.586v-23.596h2.586v23.596h34.715v-23.596h2.586v23.596c0.065 1.422-1.099 2.586-2.521 2.586z"></path>
<path d="M40.792 31.935h-1.939v-2.586c0-0.194-0.129-0.323-0.323-0.323h-34.133c-0.194 0-0.323 0.129-0.323 0.323v2.586h-1.939v-2.586c0-1.228 1.034-2.263 2.263-2.263h34.133c1.228 0 2.263 1.034 2.263 2.263v2.586z"></path>
<path d="M2.844 3.814h38.077v1.293h-38.077v-1.293z"></path>
<path d="M2.844 18.683h38.077v1.293h-38.077v-1.293z"></path>
<path d="M3.168 20.945h37.43v0.646h-37.43v-0.646z"></path>
<path d="M8.016 4.461h1.293v14.61h-1.293v-14.61z"></path>
<path d="M13.188 4.461h1.293v14.61h-1.293v-14.61z"></path>
<path d="M18.36 4.461h1.293v14.61h-1.293v-14.61z"></path>
<path d="M23.531 4.461h1.293v14.61h-1.293v-14.61z"></path>
<path d="M28.703 4.461h1.293v14.61h-1.293v-14.61z"></path>
<path d="M33.875 4.461h1.293v14.61h-1.293v-14.61z"></path>
</symbol>
<symbol id="icon-kitchen" viewBox="0 0 39 32">
<title>kitchen</title>
<path fill="#c1c1c1" style="fill: var(--color1, #c1c1c1)" d="M22.725 9.275h1.085v19.308h-1.085v-19.308z"></path>
<path fill="#c1c1c1" style="fill: var(--color1, #c1c1c1)" d="M2.386 9.166h35.254v1.085h-35.254v-1.085z"></path>
<path fill="#c1c1c1" style="fill: var(--color1, #c1c1c1)" d="M4.339 1.953h8.081v1.085h-8.081v-1.085z"></path>
<path fill="#c1c1c1" style="fill: var(--color1, #c1c1c1)" d="M15.729 1.953h8.081v1.085h-8.081v-1.085z"></path>
<path fill="#c1c1c1" style="fill: var(--color1, #c1c1c1)" d="M27.119 1.953h8.081v1.085h-8.081v-1.085z"></path>
<path fill="#c1c1c1" style="fill: var(--color1, #c1c1c1)" d="M2.983 29.342h4.99v1.627h-4.99v-1.627z"></path>
<path fill="#c1c1c1" style="fill: var(--color1, #c1c1c1)" d="M31.729 29.342h4.99v1.627h-4.99v-1.627z"></path>
<path fill="#c1c1c1" style="fill: var(--color1, #c1c1c1)" d="M36.285 29.614h-33.085c-1.193 0-2.17-0.976-2.17-2.169v-22.237c0-1.193 0.976-2.17 2.17-2.17h33.085c1.193 0 2.169 0.976 2.169 2.17v22.237c0 1.193-0.976 2.169-2.169 2.169zM3.2 5.207v22.237h33.085v-22.237h-33.085z"></path>
<path fill="#c1c1c1" style="fill: var(--color1, #c1c1c1)" d="M18.386 23.376h-10.305c-0.922 0-1.627-0.705-1.627-1.627v-6.508c0-0.922 0.705-1.627 1.627-1.627h10.305c0.922 0 1.627 0.705 1.627 1.627v6.454c0 0.922-0.705 1.681-1.627 1.681zM8.081 14.698c-0.325 0-0.542 0.217-0.542 0.542v6.454c0 0.325 0.217 0.542 0.542 0.542h10.305c0.325 0 0.542-0.217 0.542-0.542v-6.454c0-0.325-0.217-0.542-0.542-0.542h-10.305z"></path>
<path fill="#c1c1c1" style="fill: var(--color1, #c1c1c1)" d="M9.512 20.8l4.871-4.871 0.767 0.767-4.871 4.871-0.767-0.767z"></path>
<path fill="#c1c1c1" style="fill: var(--color1, #c1c1c1)" d="M12.447 20.815l4.871-4.871 0.767 0.767-4.871 4.871-0.767-0.767z"></path>
<path fill="#fff" style="fill: var(--color2, #fff)" d="M9.708 7.159c0 0.488-0.38 0.868-0.868 0.868s-0.868-0.38-0.868-0.868c0-0.488 0.38-0.868 0.868-0.868s0.868 0.38 0.868 0.868z"></path>
<path fill="#c1c1c1" style="fill: var(--color1, #c1c1c1)" d="M8.841 8.244c-0.597 0-1.139-0.488-1.139-1.139s0.488-1.139 1.139-1.139 1.139 0.488 1.139 1.139-0.488 1.139-1.139 1.139zM8.841 6.563c-0.325 0-0.597 0.271-0.597 0.597s0.271 0.597 0.597 0.597 0.597-0.271 0.597-0.597-0.271-0.597-0.597-0.597z"></path>
<path fill="#fff" style="fill: var(--color2, #fff)" d="M15.132 7.159c0 0.488-0.38 0.868-0.868 0.868s-0.868-0.38-0.868-0.868c0-0.488 0.38-0.868 0.868-0.868s0.868 0.38 0.868 0.868z"></path>
<path fill="#c1c1c1" style="fill: var(--color1, #c1c1c1)" d="M14.264 8.244c-0.597 0-1.139-0.488-1.139-1.139s0.488-1.139 1.139-1.139 1.139 0.488 1.139 1.139-0.488 1.139-1.139 1.139zM14.264 6.563c-0.325 0-0.597 0.271-0.597 0.597s0.271 0.597 0.597 0.597 0.597-0.271 0.597-0.597-0.271-0.597-0.597-0.597z"></path>
<path fill="#fff" style="fill: var(--color2, #fff)" d="M20.556 7.159c0 0.488-0.38 0.868-0.868 0.868s-0.868-0.38-0.868-0.868c0-0.488 0.38-0.868 0.868-0.868s0.868 0.38 0.868 0.868z"></path>
<path fill="#c1c1c1" style="fill: var(--color1, #c1c1c1)" d="M19.688 8.244c-0.597 0-1.139-0.488-1.139-1.139s0.488-1.139 1.139-1.139 1.139 0.488 1.139 1.139-0.488 1.139-1.139 1.139zM19.688 6.563c-0.325 0-0.597 0.271-0.597 0.597s0.271 0.597 0.597 0.597 0.597-0.271 0.597-0.597-0.271-0.597-0.597-0.597z"></path>
<path fill="#fff" style="fill: var(--color2, #fff)" d="M25.98 7.159c0 0.488-0.38 0.868-0.868 0.868s-0.868-0.38-0.868-0.868c0-0.488 0.38-0.868 0.868-0.868s0.868 0.38 0.868 0.868z"></path>
<path fill="#c1c1c1" style="fill: var(--color1, #c1c1c1)" d="M25.112 8.244c-0.597 0-1.139-0.488-1.139-1.139s0.488-1.139 1.139-1.139 1.139 0.488 1.139 1.139-0.488 1.139-1.139 1.139zM25.112 6.563c-0.325 0-0.597 0.271-0.597 0.597s0.271 0.597 0.597 0.597 0.597-0.271 0.597-0.597-0.271-0.597-0.597-0.597z"></path>
<path fill="#fff" style="fill: var(--color2, #fff)" d="M31.403 7.159c0 0.488-0.38 0.868-0.868 0.868s-0.868-0.38-0.868-0.868c0-0.488 0.38-0.868 0.868-0.868s0.868 0.38 0.868 0.868z"></path>
<path fill="#c1c1c1" style="fill: var(--color1, #c1c1c1)" d="M30.536 8.244c-0.597 0-1.139-0.488-1.139-1.139s0.488-1.139 1.139-1.139 1.139 0.488 1.139 1.139-0.488 1.139-1.139 1.139zM30.536 6.563c-0.325 0-0.597 0.271-0.597 0.597s0.271 0.597 0.597 0.597 0.597-0.271 0.597-0.597-0.271-0.597-0.597-0.597z"></path>
</symbol>
<symbol id="icon-living-room" viewBox="0 0 30 32">
<title>living-room</title>
<path fill="#fff" style="fill: var(--color2, #fff)" d="M9.176 10.4c0 0.376-0.282 0.659-0.659 0.659s-0.659-0.282-0.659-0.659c0-0.376 0.282-0.659 0.659-0.659 0.376-0.047 0.659 0.282 0.659 0.659z"></path>
<path fill="#c1c1c1" style="fill: var(--color1, #c1c1c1)" d="M8.518 11.294c-0.518 0-0.894-0.424-0.894-0.894 0-0.518 0.424-0.894 0.894-0.894s0.894 0.376 0.894 0.894c0 0.471-0.424 0.894-0.894 0.894zM8.518 9.929c-0.235 0-0.424 0.188-0.424 0.424s0.188 0.424 0.424 0.424 0.424-0.188 0.424-0.424c0-0.235-0.188-0.424-0.424-0.424z"></path>
<path fill="#fff" style="fill: var(--color2, #fff)" d="M7.294 20.753c0 0.364-0.295 0.659-0.659 0.659s-0.659-0.295-0.659-0.659c0-0.364 0.295-0.659 0.659-0.659s0.659 0.295 0.659 0.659z"></path>
<path fill="#c1c1c1" style="fill: var(--color1, #c1c1c1)" d="M6.635 21.647c-0.518 0-0.894-0.424-0.894-0.894s0.424-0.894 0.894-0.894 0.894 0.376 0.894 0.894-0.424 0.894-0.894 0.894zM6.635 20.282c-0.235 0-0.424 0.188-0.424 0.424s0.188 0.424 0.424 0.424 0.424-0.188 0.424-0.424-0.188-0.424-0.424-0.424z"></path>
<path fill="#fff" style="fill: var(--color2, #fff)" d="M7.294 25.459c0 0.364-0.295 0.659-0.659 0.659s-0.659-0.295-0.659-0.659c0-0.364 0.295-0.659 0.659-0.659s0.659 0.295 0.659 0.659z"></path>
<path fill="#c1c1c1" style="fill: var(--color1, #c1c1c1)" d="M6.635 26.353c-0.518 0-0.894-0.424-0.894-0.894s0.424-0.894 0.894-0.894 0.894 0.376 0.894 0.894-0.424 0.894-0.894 0.894zM6.635 24.988c-0.235 0-0.424 0.188-0.424 0.424s0.188 0.424 0.424 0.424 0.424-0.188 0.424-0.424-0.188-0.424-0.424-0.424z"></path>
<path fill="#c1c1c1" style="fill: var(--color1, #c1c1c1)" d="M10.824 1.506h1.412v29.694h-1.412v-29.694z"></path>
<path fill="#c1c1c1" style="fill: var(--color1, #c1c1c1)" d="M11.294 17.976h17.412v1.412h-17.412v-1.412z"></path>
<path fill="#c1c1c1" style="fill: var(--color1, #c1c1c1)" d="M0.941 17.976h10.824v1.412h-10.824v-1.412z"></path>
<path fill="#c1c1c1" style="fill: var(--color1, #c1c1c1)" d="M0.941 22.682h10.824v1.412h-10.824v-1.412z"></path>
<path fill="#c1c1c1" style="fill: var(--color1, #c1c1c1)" d="M11.765 6.682h16.471v0.471h-16.471v-0.471z"></path>
<path fill="#c1c1c1" style="fill: var(--color1, #c1c1c1)" d="M0.941 27.388h10.824v1.412h-10.824v-1.412z"></path>
<path fill="#c1c1c1" style="fill: var(--color1, #c1c1c1)" d="M29.176 31.435h-1.882v-28.941h-24.941v28.941h-1.882v-28.941c0-1.035 0.847-1.882 1.882-1.882h24.941c1.035 0 1.882 0.847 1.882 1.882v28.941z"></path>
</symbol>
<symbol id="icon-office" viewBox="0 0 36 32">
<title>office</title>
<path fill="#c1c1c1" style="fill: var(--color1, #c1c1c1)" d="M34.627 30.328h-1.91v-12.657h-29.134v12.657h-1.91v-12.657c0-1.051 0.86-1.91 1.91-1.91h29.134c1.051 0 1.91 0.86 1.91 1.91v12.657z"></path>
<path fill="#fff" style="fill: var(--color2, #fff)" d="M8.597 10.412c0 0.382-0.287 0.669-0.669 0.669s-0.669-0.287-0.669-0.669c0-0.382 0.287-0.669 0.669-0.669s0.669 0.287 0.669 0.669z"></path>
<path fill="#c1c1c1" style="fill: var(--color1, #c1c1c1)" d="M7.928 11.367c-0.525 0-0.907-0.43-0.907-0.907 0-0.525 0.43-0.907 0.907-0.907s0.907 0.43 0.907 0.907c0 0.478-0.43 0.907-0.907 0.907zM7.928 9.982c-0.239 0-0.43 0.191-0.43 0.43s0.191 0.43 0.43 0.43 0.43-0.191 0.43-0.43c0-0.239-0.191-0.43-0.43-0.43z"></path>
<path fill="#c1c1c1" style="fill: var(--color1, #c1c1c1)" d="M2.627 21.015h31.093v1.433h-31.093v-1.433z"></path>
<path fill="#c1c1c1" style="fill: var(--color1, #c1c1c1)" d="M18.436 13.851h9.982v1.433h-9.982v-1.433z"></path>
<path fill="#c1c1c1" style="fill: var(--color1, #c1c1c1)" d="M5.779 4.776h4.155v0.478h-4.155v-0.478z"></path>
<path fill="#c1c1c1" style="fill: var(--color1, #c1c1c1)" d="M32.955 13.612h-19.582v-11.463h19.582v11.463zM14.806 12.179h16.716v-8.597h-16.716v8.597z"></path>
<path fill="#c1c1c1" style="fill: var(--color1, #c1c1c1)" d="M11.94 15.522h-8.119v-13.373h8.119v13.373zM5.254 14.090h5.254v-10.507h-5.254v10.507z"></path>
</symbol>
</defs>
</svg>
